<?xml version="1.0" encoding="UTF-8" standalone="no"?>
<!-- Created with Inkscape (http://www.inkscape.org/) -->

<svg
   xmlns:dc="http://purl.org/dc/elements/1.1/"
   xmlns:cc="http://creativecommons.org/ns#"
   xmlns:rdf="http://www.w3.org/1999/02/22-rdf-syntax-ns#"
   xmlns:svg="http://www.w3.org/2000/svg"
   xmlns="http://www.w3.org/2000/svg"
   xmlns:sodipodi="http://sodipodi.sourceforge.net/DTD/sodipodi-0.dtd"
   xmlns:inkscape="http://www.inkscape.org/namespaces/inkscape"
   width="192"
   height="64"
   id="svg2985"
   version="1.1"
   inkscape:version="0.48.2 r9819"
   sodipodi:docname="icons.svg">
  <defs
     id="defs2987" />
  <sodipodi:namedview
     id="base"
     pagecolor="#ffffff"
     bordercolor="#666666"
     borderopacity="1.0"
     inkscape:pageopacity="0.0"
     inkscape:pageshadow="2"
     inkscape:zoom="31.672166"
     inkscape:cx="172.7518"
     inkscape:cy="46.467615"
     inkscape:current-layer="layer1"
     showgrid="true"
     inkscape:grid-bbox="true"
     inkscape:document-units="px"
     inkscape:window-width="1276"
     inkscape:window-height="756"
     inkscape:window-x="4"
     inkscape:window-y="0"
     inkscape:window-maximized="1">
    <inkscape:grid
       type="xygrid"
       id="grid2993"
       empspacing="4"
       visible="true"
       enabled="true"
       snapvisiblegridlinesonly="true" />
    <inkscape:grid
       type="xygrid"
       id="grid3805"
       empspacing="1"
       visible="true"
       enabled="true"
       snapvisiblegridlinesonly="true"
       spacingx="32px"
       spacingy="32px"
       empcolor="#000000"
       empopacity="0.6" />
  </sodipodi:namedview>
  <metadata
     id="metadata2990">
    <rdf:RDF>
      <cc:Work
         rdf:about="">
        <dc:format>image/svg+xml</dc:format>
        <dc:type
           rdf:resource="http://purl.org/dc/dcmitype/StillImage" />
        <dc:title />
      </cc:Work>
    </rdf:RDF>
  </metadata>
  <g
     id="layer1"
     inkscape:label="Layer 1"
     inkscape:groupmode="layer"
     transform="translate(0,32)">
    <path
       style="fill:#000000;fill-opacity:1;stroke:none"
       d="m 10,-9 0,-14 2,0 0,14 z"
       id="path2995"
       inkscape:connector-curvature="0"
       sodipodi:nodetypes="ccccc" />
    <path
       style="fill:#000000;fill-opacity:1;stroke:none"
       d="m 12,-22 c 0,0 3,-1 5,1 2,2 5,1 5,1 l 0,8 c 0,0 -3,1 -5,-1 -2,-2 -5,-1 -5,-1 z"
       id="path3765"
       inkscape:connector-curvature="0"
       sodipodi:nodetypes="czcczcc" />
    <path
       style="fill:#000000;fill-opacity:1;stroke:none"
       d="m 42,-23 4,0 0,14 -4,0 z"
       id="path3807"
       inkscape:connector-curvature="0"
       sodipodi:nodetypes="ccccc" />
    <path
       style="fill:#000000;fill-opacity:1;stroke:none"
       d="m 49,-23 4,0 0,14 -4,0 z"
       id="path3817"
       inkscape:connector-curvature="0"
       sodipodi:nodetypes="ccccc" />
    <path
       style="fill:#000000;fill-opacity:1;stroke:none"
       d="m 109,-9 6,0 4,-4 0,-6 -4,-4 -6,0 -4,4 0,6 z"
       id="path3821"
       inkscape:connector-curvature="0"
       sodipodi:nodetypes="ccccccccc" />
    <path
       style="fill:#000000;fill-opacity:1;stroke:none"
       d="m 74,-23 12,7 -12,7 z"
       id="path3823"
       inkscape:connector-curvature="0"
       sodipodi:nodetypes="cccc" />
    <path
       style="fill:#000000;fill-opacity:1;stroke:none"
       d="m 169,-23 7,0 0,2 -5,0 0,10 10,0 0,-5 2,0 0,7 -14,0 z"
       id="path3910"
       inkscape:connector-curvature="0" />
    <path
       style="fill:#000000;fill-opacity:1;stroke:none"
       d="m 175,-16.5 4.5,-4.5 -2,-2 5.5,0 0,5.5 -2,-2 -4.5,4.5 -1.5,0 z"
       id="path3912"
       inkscape:connector-curvature="0"
       sodipodi:nodetypes="ccccccccc" />
    <path
       style="fill:#000000;fill-opacity:1;stroke:none"
       d="m 151,-23 0,5.5 -2,-2 -2.5,2.5 -0.65587,-0.655869 L 145,-18.5 l 2.5,-2.5 -2,-2 z"
       id="path3936"
       inkscape:connector-curvature="0"
       sodipodi:nodetypes="ccccccccc" />
    <path
       sodipodi:nodetypes="cccccccc"
       inkscape:connector-curvature="0"
       id="path3938"
       d="m 137,-23 5.5,0 -2,2 2.5,2.5 -1.5,1.5 -2.5,-2.5 -2,2 z"
       style="fill:#000000;fill-opacity:1;stroke:none" />
    <path
       style="fill:#000000;fill-opacity:1;stroke:none"
       d="m 137,-9 0,-5.5 2,2 2.5,-2.5 1.5,1.5 -2.5,2.5 2,2 z"
       id="path3940"
       inkscape:connector-curvature="0"
       sodipodi:nodetypes="cccccccc" />
    <path
       sodipodi:nodetypes="ccccccccc"
       inkscape:connector-curvature="0"
       id="path4108"
       d="m 151,-9 -5.5,0 2,-2 -2.5,-2.5 0.65587,-0.65587 L 146.5,-15 l 2.5,2.5 2,-2 z"
       style="fill:#000000;fill-opacity:1;stroke:none" />
    <path
       style="fill:#ffffff;fill-opacity:1;stroke:none"
       d="m 10,23 0,-14 2,0 0,14 z"
       id="path2995-7"
       inkscape:connector-curvature="0"
       sodipodi:nodetypes="ccccc" />
    <path
       style="fill:#ffffff;fill-opacity:1;stroke:none"
       d="m 12,10 c 0,0 3,-1 5,1 2,2 5,1 5,1 l 0,8 c 0,0 -3,1 -5,-1 -2,-2 -5,-1 -5,-1 z"
       id="path3765-8"
       inkscape:connector-curvature="0"
       sodipodi:nodetypes="czcczcc" />
    <path
       style="fill:#ffffff;fill-opacity:1;stroke:none"
       d="m 42,9 4,0 0,14 -4,0 z"
       id="path3807-1"
       inkscape:connector-curvature="0"
       sodipodi:nodetypes="ccccc" />
    <path
       style="fill:#ffffff;fill-opacity:1;stroke:none"
       d="m 49,9 4,0 0,14 -4,0 z"
       id="path3817-3"
       inkscape:connector-curvature="0"
       sodipodi:nodetypes="ccccc" />
    <path
       style="fill:#ffffff;fill-opacity:1;stroke:none"
       d="m 109,23 6,0 4,-4 0,-6 -4,-4 -6,0 -4,4 0,6 z"
       id="path3821-4"
       inkscape:connector-curvature="0"
       sodipodi:nodetypes="ccccccccc" />
    <path
       style="fill:#ffffff;fill-opacity:1;stroke:none"
       d="m 74,9 12,7 -12,7 z"
       id="path3823-2"
       inkscape:connector-curvature="0"
       sodipodi:nodetypes="cccc" />
    <path
       style="fill:#ffffff;fill-opacity:1;stroke:none"
       d="m 145,15 0,-5.5 2,2 2.5,-2.5 0.65587,0.655869 L 151,10.5 l -2.5,2.5 2,2 z"
       id="path3936-2"
       inkscape:connector-curvature="0"
       sodipodi:nodetypes="ccccccccc" />
    <path
       sodipodi:nodetypes="cccccccc"
       inkscape:connector-curvature="0"
       id="path3938-7"
       d="m 143,15 -5.5,0 2,-2 -2.5,-2.5 1.5,-1.5 2.5,2.5 2,-2 z"
       style="fill:#ffffff;fill-opacity:1;stroke:none" />
    <path
       style="fill:#ffffff;fill-opacity:1;stroke:none"
       d="m 143,17 0,5.5 -2,-2 -2.5,2.5 -1.5,-1.5 2.5,-2.5 -2,-2 z"
       id="path3940-7"
       inkscape:connector-curvature="0"
       sodipodi:nodetypes="cccccccc" />
    <path
       sodipodi:nodetypes="ccccccccc"
       inkscape:connector-curvature="0"
       id="path4011"
       d="m 145,17 5.5,0 -2,2 2.5,2.5 -0.65587,0.65587 L 149.5,23 147,20.5 l -2,2 z"
       style="fill:#ffffff;fill-opacity:1;stroke:none" />
  </g>
</svg>
